<?xml version="1.0" encoding="utf-8" standalone="no"?>
<!DOCTYPE svg PUBLIC "-//W3C//DTD SVG 1.1//EN"
  "http://www.w3.org/Graphics/SVG/1.1/DTD/svg11.dtd">
<svg xmlns:xlink="http://www.w3.org/1999/xlink" width="497.0325pt" height="371.22pt" viewBox="0 0 497.0325 371.22" xmlns="http://www.w3.org/2000/svg" version="1.1">
 <metadata>
  <rdf:RDF xmlns:dc="http://purl.org/dc/elements/1.1/" xmlns:cc="http://creativecommons.org/ns#" xmlns:rdf="http://www.w3.org/1999/02/22-rdf-syntax-ns#">
   <cc:Work>
    <dc:type rdf:resource="http://purl.org/dc/dcmitype/StillImage"/>
    <dc:date>2026-04-28T15:41:37.716484</dc:date>
    <dc:format>image/svg+xml</dc:format>
    <dc:creator>
     <cc:Agent>
      <dc:title>Matplotlib v3.10.1, https://matplotlib.org/</dc:title>
     </cc:Agent>
    </dc:creator>
   </cc:Work>
  </rdf:RDF>
 </metadata>
 <defs>
  <style type="text/css">*{stroke-linejoin: round; stroke-linecap: butt}</style>
 </defs>
 <g id="figure_1">
  <g id="patch_1">
   <path d="M 0 371.22 
L 497.0325 371.22 
L 497.0325 0 
L 0 0 
z
" style="fill: #ffffff"/>
  </g>
  <g id="axes_1">
   <g id="patch_2">
    <path d="M 60.7325 323.955 
L 489.8325 323.955 
L 489.8325 12.755 
L 60.7325 12.755 
L 60.7325 323.955 
z
" style="fill: none"/>
   </g>
   <g id="PathCollection_1">
    <defs>
     <path id="mcb299c0e5c" d="M 0 3 
C 0.795609 3 1.55874 2.683901 2.12132 2.12132 
C 2.683901 1.55874 3 0.795609 3 0 
C 3 -0.795609 2.683901 -1.55874 2.12132 -2.12132 
C 1.55874 -2.683901 0.795609 -3 0 -3 
C -0.795609 -3 -1.55874 -2.683901 -2.12132 -2.12132 
C -2.683901 -1.55874 -3 -0.795609 -3 0 
C -3 0.795609 -2.683901 1.55874 -2.12132 2.12132 
C -1.55874 2.683901 -0.795609 3 0 3 
z
" style="stroke: #008000"/>
    </defs>
    <g clip-path="url(#pafddd45278)">
     <use xlink:href="#mcb299c0e5c" x="86.4785" y="99.585759" style="fill: #008000; stroke: #008000"/>
     <use xlink:href="#mcb299c0e5c" x="134.215875" y="206.22736" style="fill: #008000; stroke: #008000"/>
     <use xlink:href="#mcb299c0e5c" x="181.95325" y="248.661738" style="fill: #008000; stroke: #008000"/>
     <use xlink:href="#mcb299c0e5c" x="229.690625" y="265.695511" style="fill: #008000; stroke: #008000"/>
     <use xlink:href="#mcb299c0e5c" x="277.428" y="278.178137" style="fill: #008000; stroke: #008000"/>
     <use xlink:href="#mcb299c0e5c" x="325.165375" y="286.109615" style="fill: #008000; stroke: #008000"/>
     <use xlink:href="#mcb299c0e5c" x="372.90275" y="291.216252" style="fill: #008000; stroke: #008000"/>
     <use xlink:href="#mcb299c0e5c" x="420.640125" y="295.187758" style="fill: #008000; stroke: #008000"/>
     <use xlink:href="#mcb299c0e5c" x="468.3775" y="296.664928" style="fill: #008000; stroke: #008000"/>
    </g>
   </g>
   <g id="PathCollection_2">
    <defs>
     <path id="m51a9484bab" d="M 0 3 
C 0.795609 3 1.55874 2.683901 2.12132 2.12132 
C 2.683901 1.55874 3 0.795609 3 0 
C 3 -0.795609 2.683901 -1.55874 2.12132 -2.12132 
C 1.55874 -2.683901 0.795609 -3 0 -3 
C -0.795609 -3 -1.55874 -2.683901 -2.12132 -2.12132 
C -2.683901 -1.55874 -3 -0.795609 -3 0 
C -3 0.795609 -2.683901 1.55874 -2.12132 2.12132 
C -1.55874 2.683901 -0.795609 3 0 3 
z
" style="stroke: #0000ff"/>
    </defs>
    <g clip-path="url(#pafddd45278)">
     <use xlink:href="#m51a9484bab" x="86.4785" y="132.120767" style="fill: #0000ff; stroke: #0000ff"/>
     <use xlink:href="#m51a9484bab" x="134.215875" y="230.088985" style="fill: #0000ff; stroke: #0000ff"/>
     <use xlink:href="#m51a9484bab" x="181.95325" y="258.120474" style="fill: #0000ff; stroke: #0000ff"/>
     <use xlink:href="#m51a9484bab" x="229.690625" y="271.728806" style="fill: #0000ff; stroke: #0000ff"/>
     <use xlink:href="#m51a9484bab" x="277.428" y="286.023217" style="fill: #0000ff; stroke: #0000ff"/>
     <use xlink:href="#m51a9484bab" x="325.165375" y="291.662361" style="fill: #0000ff; stroke: #0000ff"/>
     <use xlink:href="#m51a9484bab" x="372.90275" y="296.328462" style="fill: #0000ff; stroke: #0000ff"/>
     <use xlink:href="#m51a9484bab" x="420.640125" y="300.572248" style="fill: #0000ff; stroke: #0000ff"/>
     <use xlink:href="#m51a9484bab" x="468.3775" y="302.995932" style="fill: #0000ff; stroke: #0000ff"/>
    </g>
   </g>
   <g id="PathCollection_3">
    <defs>
     <path id="m79b5282b70" d="M 0 3 
C 0.795609 3 1.55874 2.683901 2.12132 2.12132 
C 2.683901 1.55874 3 0.795609 3 0 
C 3 -0.795609 2.683901 -1.55874 2.12132 -2.12132 
C 1.55874 -2.683901 0.795609 -3 0 -3 
C -0.795609 -3 -1.55874 -2.683901 -2.12132 -2.12132 
C -2.683901 -1.55874 -3 -0.795609 -3 0 
C -3 0.795609 -2.683901 1.55874 -2.12132 2.12132 
C -1.55874 2.683901 -0.795609 3 0 3 
z
" style="stroke: #ffa500"/>
    </defs>
    <g clip-path="url(#pafddd45278)">
     <use xlink:href="#m79b5282b70" x="86.4785" y="146.877952" style="fill: #ffa500; stroke: #ffa500"/>
     <use xlink:href="#m79b5282b70" x="134.215875" y="238.410624" style="fill: #ffa500; stroke: #ffa500"/>
     <use xlink:href="#m79b5282b70" x="181.95325" y="264.801956" style="fill: #ffa500; stroke: #ffa500"/>
     <use xlink:href="#m79b5282b70" x="229.690625" y="279.539864" style="fill: #ffa500; stroke: #ffa500"/>
     <use xlink:href="#m79b5282b70" x="277.428" y="288.660675" style="fill: #ffa500; stroke: #ffa500"/>
     <use xlink:href="#m79b5282b70" x="325.165375" y="294.691168" style="fill: #ffa500; stroke: #ffa500"/>
     <use xlink:href="#m79b5282b70" x="372.90275" y="298.169161" style="fill: #ffa500; stroke: #ffa500"/>
     <use xlink:href="#m79b5282b70" x="420.640125" y="300.855587" style="fill: #ffa500; stroke: #ffa500"/>
     <use xlink:href="#m79b5282b70" x="468.3775" y="300.197709" style="fill: #ffa500; stroke: #ffa500"/>
    </g>
   </g>
   <g id="PathCollection_4">
    <defs>
     <path id="m2b52ebec09" d="M -3 3 
L 3 -3 
M -3 -3 
L 3 3 
" style="stroke: #ff0000; stroke-width: 1.5"/>
    </defs>
    <g clip-path="url(#pafddd45278)">
     <use xlink:href="#m2b52ebec09" x="86.4785" y="172.070285" style="fill: #ff0000; stroke: #ff0000; stroke-width: 1.5"/>
     <use xlink:href="#m2b52ebec09" x="134.215875" y="243.126981" style="fill: #ff0000; stroke: #ff0000; stroke-width: 1.5"/>
     <use xlink:href="#m2b52ebec09" x="181.95325" y="272.12414" style="fill: #ff0000; stroke: #ff0000; stroke-width: 1.5"/>
     <use xlink:href="#m2b52ebec09" x="229.690625" y="281.819501" style="fill: #ff0000; stroke: #ff0000; stroke-width: 1.5"/>
     <use xlink:href="#m2b52ebec09" x="277.428" y="291.668758" style="fill: #ff0000; stroke: #ff0000; stroke-width: 1.5"/>
     <use xlink:href="#m2b52ebec09" x="325.165375" y="297.5927" style="fill: #ff0000; stroke: #ff0000; stroke-width: 1.5"/>
     <use xlink:href="#m2b52ebec09" x="372.90275" y="301.304002" style="fill: #ff0000; stroke: #ff0000; stroke-width: 1.5"/>
     <use xlink:href="#m2b52ebec09" x="420.640125" y="304.444412" style="fill: #ff0000; stroke: #ff0000; stroke-width: 1.5"/>
     <use xlink:href="#m2b52ebec09" x="468.3775" y="304.444412" style="fill: #ff0000; stroke: #ff0000; stroke-width: 1.5"/>
    </g>
   </g>
   <g id="matplotlib.axis_1">
    <g id="xtick_1">
     <g id="line2d_1">
      <path d="M 125.0975 323.955 
L 125.0975 12.755 
" clip-path="url(#pafddd45278)" style="fill: none; stroke: #b0b0b0; stroke-width: 0.8; stroke-linecap: square"/>
     </g>
     <g id="line2d_2">
      <defs>
       <path id="m19d33b8411" d="M 0 0 
L 0 3.5 
" style="stroke: #000000; stroke-width: 0.8"/>
      </defs>
      <g>
       <use xlink:href="#m19d33b8411" x="125.0975" y="323.955" style="stroke: #000000; stroke-width: 0.8"/>
      </g>
     </g>
     <g id="text_1">
      <!-- 200 -->
      <g transform="translate(113.0975 342.065) scale(0.16 -0.16)">
       <defs>
        <path id="TimesNewRomanPSMT-32" d="M 2934 816 
L 2638 0 
L 138 0 
L 138 116 
Q 1241 1122 1691 1759 
Q 2141 2397 2141 2925 
Q 2141 3328 1894 3587 
Q 1647 3847 1303 3847 
Q 991 3847 742 3664 
Q 494 3481 375 3128 
L 259 3128 
Q 338 3706 661 4015 
Q 984 4325 1469 4325 
Q 1984 4325 2329 3994 
Q 2675 3663 2675 3213 
Q 2675 2891 2525 2569 
Q 2294 2063 1775 1497 
Q 997 647 803 472 
L 1909 472 
Q 2247 472 2383 497 
Q 2519 522 2628 598 
Q 2738 675 2819 816 
L 2934 816 
z
" transform="scale(0.015625)"/>
        <path id="TimesNewRomanPSMT-30" d="M 231 2094 
Q 231 2819 450 3342 
Q 669 3866 1031 4122 
Q 1313 4325 1613 4325 
Q 2100 4325 2488 3828 
Q 2972 3213 2972 2159 
Q 2972 1422 2759 906 
Q 2547 391 2217 158 
Q 1888 -75 1581 -75 
Q 975 -75 572 641 
Q 231 1244 231 2094 
z
M 844 2016 
Q 844 1141 1059 588 
Q 1238 122 1591 122 
Q 1759 122 1940 273 
Q 2122 425 2216 781 
Q 2359 1319 2359 2297 
Q 2359 3022 2209 3506 
Q 2097 3866 1919 4016 
Q 1791 4119 1609 4119 
Q 1397 4119 1231 3928 
Q 1006 3669 925 3112 
Q 844 2556 844 2016 
z
" transform="scale(0.015625)"/>
       </defs>
       <use xlink:href="#TimesNewRomanPSMT-32"/>
       <use xlink:href="#TimesNewRomanPSMT-30" transform="translate(50 0)"/>
       <use xlink:href="#TimesNewRomanPSMT-30" transform="translate(100 0)"/>
      </g>
     </g>
    </g>
    <g id="xtick_2">
     <g id="line2d_3">
      <path d="M 210.9175 323.955 
L 210.9175 12.755 
" clip-path="url(#pafddd45278)" style="fill: none; stroke: #b0b0b0; stroke-width: 0.8; stroke-linecap: square"/>
     </g>
     <g id="line2d_4">
      <g>
       <use xlink:href="#m19d33b8411" x="210.9175" y="323.955" style="stroke: #000000; stroke-width: 0.8"/>
      </g>
     </g>
     <g id="text_2">
      <!-- 400 -->
      <g transform="translate(198.9175 342.065) scale(0.16 -0.16)">
       <defs>
        <path id="TimesNewRomanPSMT-34" d="M 2978 1563 
L 2978 1119 
L 2409 1119 
L 2409 0 
L 1894 0 
L 1894 1119 
L 100 1119 
L 100 1519 
L 2066 4325 
L 2409 4325 
L 2409 1563 
L 2978 1563 
z
M 1894 1563 
L 1894 3666 
L 406 1563 
L 1894 1563 
z
" transform="scale(0.015625)"/>
       </defs>
       <use xlink:href="#TimesNewRomanPSMT-34"/>
       <use xlink:href="#TimesNewRomanPSMT-30" transform="translate(50 0)"/>
       <use xlink:href="#TimesNewRomanPSMT-30" transform="translate(100 0)"/>
      </g>
     </g>
    </g>
    <g id="xtick_3">
     <g id="line2d_5">
      <path d="M 296.7375 323.955 
L 296.7375 12.755 
" clip-path="url(#pafddd45278)" style="fill: none; stroke: #b0b0b0; stroke-width: 0.8; stroke-linecap: square"/>
     </g>
     <g id="line2d_6">
      <g>
       <use xlink:href="#m19d33b8411" x="296.7375" y="323.955" style="stroke: #000000; stroke-width: 0.8"/>
      </g>
     </g>
     <g id="text_3">
      <!-- 600 -->
      <g transform="translate(284.7375 342.065) scale(0.16 -0.16)">
       <defs>
        <path id="TimesNewRomanPSMT-36" d="M 2869 4325 
L 2869 4209 
Q 2456 4169 2195 4045 
Q 1934 3922 1679 3669 
Q 1425 3416 1258 3105 
Q 1091 2794 978 2366 
Q 1428 2675 1881 2675 
Q 2316 2675 2634 2325 
Q 2953 1975 2953 1425 
Q 2953 894 2631 456 
Q 2244 -75 1606 -75 
Q 1172 -75 869 213 
Q 275 772 275 1663 
Q 275 2231 503 2743 
Q 731 3256 1154 3653 
Q 1578 4050 1965 4187 
Q 2353 4325 2688 4325 
L 2869 4325 
z
M 925 2138 
Q 869 1716 869 1456 
Q 869 1156 980 804 
Q 1091 453 1309 247 
Q 1469 100 1697 100 
Q 1969 100 2183 356 
Q 2397 613 2397 1088 
Q 2397 1622 2184 2012 
Q 1972 2403 1581 2403 
Q 1463 2403 1327 2353 
Q 1191 2303 925 2138 
z
" transform="scale(0.015625)"/>
       </defs>
       <use xlink:href="#TimesNewRomanPSMT-36"/>
       <use xlink:href="#TimesNewRomanPSMT-30" transform="translate(50 0)"/>
       <use xlink:href="#TimesNewRomanPSMT-30" transform="translate(100 0)"/>
      </g>
     </g>
    </g>
    <g id="xtick_4">
     <g id="line2d_7">
      <path d="M 382.5575 323.955 
L 382.5575 12.755 
" clip-path="url(#pafddd45278)" style="fill: none; stroke: #b0b0b0; stroke-width: 0.8; stroke-linecap: square"/>
     </g>
     <g id="line2d_8">
      <g>
       <use xlink:href="#m19d33b8411" x="382.5575" y="323.955" style="stroke: #000000; stroke-width: 0.8"/>
      </g>
     </g>
     <g id="text_4">
      <!-- 800 -->
      <g transform="translate(370.5575 342.065) scale(0.16 -0.16)">
       <defs>
        <path id="TimesNewRomanPSMT-38" d="M 1228 2134 
Q 725 2547 579 2797 
Q 434 3047 434 3316 
Q 434 3728 753 4026 
Q 1072 4325 1600 4325 
Q 2113 4325 2425 4047 
Q 2738 3769 2738 3413 
Q 2738 3175 2569 2928 
Q 2400 2681 1866 2347 
Q 2416 1922 2594 1678 
Q 2831 1359 2831 1006 
Q 2831 559 2490 242 
Q 2150 -75 1597 -75 
Q 994 -75 656 303 
Q 388 606 388 966 
Q 388 1247 577 1523 
Q 766 1800 1228 2134 
z
M 1719 2469 
Q 2094 2806 2194 3001 
Q 2294 3197 2294 3444 
Q 2294 3772 2109 3958 
Q 1925 4144 1606 4144 
Q 1288 4144 1088 3959 
Q 888 3775 888 3528 
Q 888 3366 970 3203 
Q 1053 3041 1206 2894 
L 1719 2469 
z
M 1375 2016 
Q 1116 1797 991 1539 
Q 866 1281 866 981 
Q 866 578 1086 336 
Q 1306 94 1647 94 
Q 1984 94 2187 284 
Q 2391 475 2391 747 
Q 2391 972 2272 1150 
Q 2050 1481 1375 2016 
z
" transform="scale(0.015625)"/>
       </defs>
       <use xlink:href="#TimesNewRomanPSMT-38"/>
       <use xlink:href="#TimesNewRomanPSMT-30" transform="translate(50 0)"/>
       <use xlink:href="#TimesNewRomanPSMT-30" transform="translate(100 0)"/>
      </g>
     </g>
    </g>
    <g id="xtick_5">
     <g id="line2d_9">
      <path d="M 468.3775 323.955 
L 468.3775 12.755 
" clip-path="url(#pafddd45278)" style="fill: none; stroke: #b0b0b0; stroke-width: 0.8; stroke-linecap: square"/>
     </g>
     <g id="line2d_10">
      <g>
       <use xlink:href="#m19d33b8411" x="468.3775" y="323.955" style="stroke: #000000; stroke-width: 0.8"/>
      </g>
     </g>
     <g id="text_5">
      <!-- 1000 -->
      <g transform="translate(452.3775 342.065) scale(0.16 -0.16)">
       <defs>
        <path id="TimesNewRomanPSMT-31" d="M 750 3822 
L 1781 4325 
L 1884 4325 
L 1884 747 
Q 1884 391 1914 303 
Q 1944 216 2037 169 
Q 2131 122 2419 116 
L 2419 0 
L 825 0 
L 825 116 
Q 1125 122 1212 167 
Q 1300 213 1334 289 
Q 1369 366 1369 747 
L 1369 3034 
Q 1369 3497 1338 3628 
Q 1316 3728 1258 3775 
Q 1200 3822 1119 3822 
Q 1003 3822 797 3725 
L 750 3822 
z
" transform="scale(0.015625)"/>
       </defs>
       <use xlink:href="#TimesNewRomanPSMT-31"/>
       <use xlink:href="#TimesNewRomanPSMT-30" transform="translate(50 0)"/>
       <use xlink:href="#TimesNewRomanPSMT-30" transform="translate(100 0)"/>
       <use xlink:href="#TimesNewRomanPSMT-30" transform="translate(150 0)"/>
      </g>
     </g>
    </g>
    <g id="text_6">
     <!-- Block time -->
     <g transform="translate(239.95375 360.5975) scale(0.16 -0.16)">
      <defs>
       <path id="TimesNewRomanPSMT-42" d="M 2956 2163 
Q 3397 2069 3616 1863 
Q 3919 1575 3919 1159 
Q 3919 844 3719 555 
Q 3519 266 3170 133 
Q 2822 0 2106 0 
L 106 0 
L 106 116 
L 266 116 
Q 531 116 647 284 
Q 719 394 719 750 
L 719 3488 
Q 719 3881 628 3984 
Q 506 4122 266 4122 
L 106 4122 
L 106 4238 
L 1938 4238 
Q 2450 4238 2759 4163 
Q 3228 4050 3475 3764 
Q 3722 3478 3722 3106 
Q 3722 2788 3528 2536 
Q 3334 2284 2956 2163 
z
M 1319 2331 
Q 1434 2309 1582 2298 
Q 1731 2288 1909 2288 
Q 2366 2288 2595 2386 
Q 2825 2484 2947 2687 
Q 3069 2891 3069 3131 
Q 3069 3503 2766 3765 
Q 2463 4028 1881 4028 
Q 1569 4028 1319 3959 
L 1319 2331 
z
M 1319 306 
Q 1681 222 2034 222 
Q 2600 222 2897 476 
Q 3194 731 3194 1106 
Q 3194 1353 3059 1581 
Q 2925 1809 2622 1940 
Q 2319 2072 1872 2072 
Q 1678 2072 1540 2065 
Q 1403 2059 1319 2044 
L 1319 306 
z
" transform="scale(0.015625)"/>
       <path id="TimesNewRomanPSMT-6c" d="M 1184 4444 
L 1184 647 
Q 1184 378 1223 290 
Q 1263 203 1344 158 
Q 1425 113 1647 113 
L 1647 0 
L 244 0 
L 244 113 
Q 441 113 512 153 
Q 584 194 625 287 
Q 666 381 666 647 
L 666 3247 
Q 666 3731 644 3842 
Q 622 3953 573 3993 
Q 525 4034 450 4034 
Q 369 4034 244 3984 
L 191 4094 
L 1044 4444 
L 1184 4444 
z
" transform="scale(0.015625)"/>
       <path id="TimesNewRomanPSMT-6f" d="M 1600 2947 
Q 2250 2947 2644 2453 
Q 2978 2031 2978 1484 
Q 2978 1100 2793 706 
Q 2609 313 2286 112 
Q 1963 -88 1566 -88 
Q 919 -88 538 428 
Q 216 863 216 1403 
Q 216 1797 411 2186 
Q 606 2575 925 2761 
Q 1244 2947 1600 2947 
z
M 1503 2744 
Q 1338 2744 1170 2645 
Q 1003 2547 900 2300 
Q 797 2053 797 1666 
Q 797 1041 1045 587 
Q 1294 134 1700 134 
Q 2003 134 2200 384 
Q 2397 634 2397 1244 
Q 2397 2006 2069 2444 
Q 1847 2744 1503 2744 
z
" transform="scale(0.015625)"/>
       <path id="TimesNewRomanPSMT-63" d="M 2631 1088 
Q 2516 522 2178 217 
Q 1841 -88 1431 -88 
Q 944 -88 581 321 
Q 219 731 219 1428 
Q 219 2103 620 2525 
Q 1022 2947 1584 2947 
Q 2006 2947 2278 2723 
Q 2550 2500 2550 2259 
Q 2550 2141 2473 2067 
Q 2397 1994 2259 1994 
Q 2075 1994 1981 2113 
Q 1928 2178 1911 2362 
Q 1894 2547 1784 2644 
Q 1675 2738 1481 2738 
Q 1169 2738 978 2506 
Q 725 2200 725 1697 
Q 725 1184 976 792 
Q 1228 400 1656 400 
Q 1963 400 2206 609 
Q 2378 753 2541 1131 
L 2631 1088 
z
" transform="scale(0.015625)"/>
       <path id="TimesNewRomanPSMT-6b" d="M 1047 4444 
L 1047 1597 
L 1775 2259 
Q 2006 2472 2044 2528 
Q 2069 2566 2069 2603 
Q 2069 2666 2017 2711 
Q 1966 2756 1847 2763 
L 1847 2863 
L 3091 2863 
L 3091 2763 
Q 2834 2756 2664 2684 
Q 2494 2613 2291 2428 
L 1556 1750 
L 2291 822 
Q 2597 438 2703 334 
Q 2853 188 2966 144 
Q 3044 113 3238 113 
L 3238 0 
L 1847 0 
L 1847 113 
Q 1966 116 2008 148 
Q 2050 181 2050 241 
Q 2050 313 1925 472 
L 1047 1594 
L 1047 644 
Q 1047 366 1086 278 
Q 1125 191 1197 153 
Q 1269 116 1509 113 
L 1509 0 
L 53 0 
L 53 113 
Q 272 113 381 166 
Q 447 200 481 272 
Q 528 375 528 628 
L 528 3234 
Q 528 3731 506 3842 
Q 484 3953 434 3995 
Q 384 4038 303 4038 
Q 238 4038 106 3984 
L 53 4094 
L 903 4444 
L 1047 4444 
z
" transform="scale(0.015625)"/>
       <path id="TimesNewRomanPSMT-20" transform="scale(0.015625)"/>
       <path id="TimesNewRomanPSMT-74" d="M 1031 3803 
L 1031 2863 
L 1700 2863 
L 1700 2644 
L 1031 2644 
L 1031 788 
Q 1031 509 1111 412 
Q 1191 316 1316 316 
Q 1419 316 1516 380 
Q 1613 444 1666 569 
L 1788 569 
Q 1678 263 1478 108 
Q 1278 -47 1066 -47 
Q 922 -47 784 33 
Q 647 113 581 261 
Q 516 409 516 719 
L 516 2644 
L 63 2644 
L 63 2747 
Q 234 2816 414 2980 
Q 594 3144 734 3369 
Q 806 3488 934 3803 
L 1031 3803 
z
" transform="scale(0.015625)"/>
       <path id="TimesNewRomanPSMT-69" d="M 928 4444 
Q 1059 4444 1151 4351 
Q 1244 4259 1244 4128 
Q 1244 3997 1151 3903 
Q 1059 3809 928 3809 
Q 797 3809 703 3903 
Q 609 3997 609 4128 
Q 609 4259 701 4351 
Q 794 4444 928 4444 
z
M 1188 2947 
L 1188 647 
Q 1188 378 1227 289 
Q 1266 200 1342 156 
Q 1419 113 1622 113 
L 1622 0 
L 231 0 
L 231 113 
Q 441 113 512 153 
Q 584 194 626 287 
Q 669 381 669 647 
L 669 1750 
Q 669 2216 641 2353 
Q 619 2453 572 2492 
Q 525 2531 444 2531 
Q 356 2531 231 2484 
L 188 2597 
L 1050 2947 
L 1188 2947 
z
" transform="scale(0.015625)"/>
       <path id="TimesNewRomanPSMT-6d" d="M 1050 2338 
Q 1363 2650 1419 2697 
Q 1559 2816 1721 2881 
Q 1884 2947 2044 2947 
Q 2313 2947 2506 2790 
Q 2700 2634 2766 2338 
Q 3088 2713 3309 2830 
Q 3531 2947 3766 2947 
Q 3994 2947 4170 2830 
Q 4347 2713 4450 2447 
Q 4519 2266 4519 1878 
L 4519 647 
Q 4519 378 4559 278 
Q 4591 209 4675 161 
Q 4759 113 4950 113 
L 4950 0 
L 3538 0 
L 3538 113 
L 3597 113 
Q 3781 113 3884 184 
Q 3956 234 3988 344 
Q 4000 397 4000 647 
L 4000 1878 
Q 4000 2228 3916 2372 
Q 3794 2572 3525 2572 
Q 3359 2572 3192 2489 
Q 3025 2406 2788 2181 
L 2781 2147 
L 2788 2013 
L 2788 647 
Q 2788 353 2820 281 
Q 2853 209 2943 161 
Q 3034 113 3253 113 
L 3253 0 
L 1806 0 
L 1806 113 
Q 2044 113 2133 169 
Q 2222 225 2256 338 
Q 2272 391 2272 647 
L 2272 1878 
Q 2272 2228 2169 2381 
Q 2031 2581 1784 2581 
Q 1616 2581 1450 2491 
Q 1191 2353 1050 2181 
L 1050 647 
Q 1050 366 1089 281 
Q 1128 197 1204 155 
Q 1281 113 1516 113 
L 1516 0 
L 100 0 
L 100 113 
Q 297 113 375 155 
Q 453 197 493 289 
Q 534 381 534 647 
L 534 1741 
Q 534 2213 506 2350 
Q 484 2453 437 2492 
Q 391 2531 309 2531 
Q 222 2531 100 2484 
L 53 2597 
L 916 2947 
L 1050 2947 
L 1050 2338 
z
" transform="scale(0.015625)"/>
       <path id="TimesNewRomanPSMT-65" d="M 681 1784 
Q 678 1147 991 784 
Q 1303 422 1725 422 
Q 2006 422 2214 576 
Q 2422 731 2563 1106 
L 2659 1044 
Q 2594 616 2278 264 
Q 1963 -88 1488 -88 
Q 972 -88 605 314 
Q 238 716 238 1394 
Q 238 2128 614 2539 
Q 991 2950 1559 2950 
Q 2041 2950 2350 2633 
Q 2659 2316 2659 1784 
L 681 1784 
z
M 681 1966 
L 2006 1966 
Q 1991 2241 1941 2353 
Q 1863 2528 1708 2628 
Q 1553 2728 1384 2728 
Q 1125 2728 920 2526 
Q 716 2325 681 1966 
z
" transform="scale(0.015625)"/>
      </defs>
      <use xlink:href="#TimesNewRomanPSMT-42"/>
      <use xlink:href="#TimesNewRomanPSMT-6c" transform="translate(66.699219 0)"/>
      <use xlink:href="#TimesNewRomanPSMT-6f" transform="translate(94.482422 0)"/>
      <use xlink:href="#TimesNewRomanPSMT-63" transform="translate(144.482422 0)"/>
      <use xlink:href="#TimesNewRomanPSMT-6b" transform="translate(188.867188 0)"/>
      <use xlink:href="#TimesNewRomanPSMT-20" transform="translate(238.867188 0)"/>
      <use xlink:href="#TimesNewRomanPSMT-74" transform="translate(263.867188 0)"/>
      <use xlink:href="#TimesNewRomanPSMT-69" transform="translate(291.650391 0)"/>
      <use xlink:href="#TimesNewRomanPSMT-6d" transform="translate(319.433594 0)"/>
      <use xlink:href="#TimesNewRomanPSMT-65" transform="translate(397.216797 0)"/>
     </g>
    </g>
   </g>
   <g id="matplotlib.axis_2">
    <g id="ytick_1">
     <g id="line2d_11">
      <path d="M 60.7325 323.955 
L 489.8325 323.955 
" clip-path="url(#pafddd45278)" style="fill: none; stroke: #b0b0b0; stroke-width: 0.8; stroke-linecap: square"/>
     </g>
     <g id="line2d_12">
      <defs>
       <path id="mf418262688" d="M 0 0 
L -3.5 0 
" style="stroke: #000000; stroke-width: 0.8"/>
      </defs>
      <g>
       <use xlink:href="#mf418262688" x="60.7325" y="323.955" style="stroke: #000000; stroke-width: 0.8"/>
      </g>
     </g>
     <g id="text_7">
      <!-- 0.00 -->
      <g transform="translate(25.7325 329.51) scale(0.16 -0.16)">
       <defs>
        <path id="TimesNewRomanPSMT-2e" d="M 800 606 
Q 947 606 1047 504 
Q 1147 403 1147 259 
Q 1147 116 1045 14 
Q 944 -88 800 -88 
Q 656 -88 554 14 
Q 453 116 453 259 
Q 453 406 554 506 
Q 656 606 800 606 
z
" transform="scale(0.015625)"/>
       </defs>
       <use xlink:href="#TimesNewRomanPSMT-30"/>
       <use xlink:href="#TimesNewRomanPSMT-2e" transform="translate(50 0)"/>
       <use xlink:href="#TimesNewRomanPSMT-30" transform="translate(75 0)"/>
       <use xlink:href="#TimesNewRomanPSMT-30" transform="translate(125 0)"/>
      </g>
     </g>
    </g>
    <g id="ytick_2">
     <g id="line2d_13">
      <path d="M 60.7325 285.055 
L 489.8325 285.055 
" clip-path="url(#pafddd45278)" style="fill: none; stroke: #b0b0b0; stroke-width: 0.8; stroke-linecap: square"/>
     </g>
     <g id="line2d_14">
      <g>
       <use xlink:href="#mf418262688" x="60.7325" y="285.055" style="stroke: #000000; stroke-width: 0.8"/>
      </g>
     </g>
     <g id="text_8">
      <!-- 0.01 -->
      <g transform="translate(25.7325 290.61) scale(0.16 -0.16)">
       <use xlink:href="#TimesNewRomanPSMT-30"/>
       <use xlink:href="#TimesNewRomanPSMT-2e" transform="translate(50 0)"/>
       <use xlink:href="#TimesNewRomanPSMT-30" transform="translate(75 0)"/>
       <use xlink:href="#TimesNewRomanPSMT-31" transform="translate(125 0)"/>
      </g>
     </g>
    </g>
    <g id="ytick_3">
     <g id="line2d_15">
      <path d="M 60.7325 246.155 
L 489.8325 246.155 
" clip-path="url(#pafddd45278)" style="fill: none; stroke: #b0b0b0; stroke-width: 0.8; stroke-linecap: square"/>
     </g>
     <g id="line2d_16">
      <g>
       <use xlink:href="#mf418262688" x="60.7325" y="246.155" style="stroke: #000000; stroke-width: 0.8"/>
      </g>
     </g>
     <g id="text_9">
      <!-- 0.02 -->
      <g transform="translate(25.7325 251.71) scale(0.16 -0.16)">
       <use xlink:href="#TimesNewRomanPSMT-30"/>
       <use xlink:href="#TimesNewRomanPSMT-2e" transform="translate(50 0)"/>
       <use xlink:href="#TimesNewRomanPSMT-30" transform="translate(75 0)"/>
       <use xlink:href="#TimesNewRomanPSMT-32" transform="translate(125 0)"/>
      </g>
     </g>
    </g>
    <g id="ytick_4">
     <g id="line2d_17">
      <path d="M 60.7325 207.255 
L 489.8325 207.255 
" clip-path="url(#pafddd45278)" style="fill: none; stroke: #b0b0b0; stroke-width: 0.8; stroke-linecap: square"/>
     </g>
     <g id="line2d_18">
      <g>
       <use xlink:href="#mf418262688" x="60.7325" y="207.255" style="stroke: #000000; stroke-width: 0.8"/>
      </g>
     </g>
     <g id="text_10">
      <!-- 0.03 -->
      <g transform="translate(25.7325 212.81) scale(0.16 -0.16)">
       <defs>
        <path id="TimesNewRomanPSMT-33" d="M 325 3431 
Q 506 3859 782 4092 
Q 1059 4325 1472 4325 
Q 1981 4325 2253 3994 
Q 2459 3747 2459 3466 
Q 2459 3003 1878 2509 
Q 2269 2356 2469 2072 
Q 2669 1788 2669 1403 
Q 2669 853 2319 450 
Q 1863 -75 997 -75 
Q 569 -75 414 31 
Q 259 138 259 259 
Q 259 350 332 419 
Q 406 488 509 488 
Q 588 488 669 463 
Q 722 447 909 348 
Q 1097 250 1169 231 
Q 1284 197 1416 197 
Q 1734 197 1970 444 
Q 2206 691 2206 1028 
Q 2206 1275 2097 1509 
Q 2016 1684 1919 1775 
Q 1784 1900 1550 2001 
Q 1316 2103 1072 2103 
L 972 2103 
L 972 2197 
Q 1219 2228 1467 2375 
Q 1716 2522 1828 2728 
Q 1941 2934 1941 3181 
Q 1941 3503 1739 3701 
Q 1538 3900 1238 3900 
Q 753 3900 428 3381 
L 325 3431 
z
" transform="scale(0.015625)"/>
       </defs>
       <use xlink:href="#TimesNewRomanPSMT-30"/>
       <use xlink:href="#TimesNewRomanPSMT-2e" transform="translate(50 0)"/>
       <use xlink:href="#TimesNewRomanPSMT-30" transform="translate(75 0)"/>
       <use xlink:href="#TimesNewRomanPSMT-33" transform="translate(125 0)"/>
      </g>
     </g>
    </g>
    <g id="ytick_5">
     <g id="line2d_19">
      <path d="M 60.7325 168.355 
L 489.8325 168.355 
" clip-path="url(#pafddd45278)" style="fill: none; stroke: #b0b0b0; stroke-width: 0.8; stroke-linecap: square"/>
     </g>
     <g id="line2d_20">
      <g>
       <use xlink:href="#mf418262688" x="60.7325" y="168.355" style="stroke: #000000; stroke-width: 0.8"/>
      </g>
     </g>
     <g id="text_11">
      <!-- 0.04 -->
      <g transform="translate(25.7325 173.91) scale(0.16 -0.16)">
       <use xlink:href="#TimesNewRomanPSMT-30"/>
       <use xlink:href="#TimesNewRomanPSMT-2e" transform="translate(50 0)"/>
       <use xlink:href="#TimesNewRomanPSMT-30" transform="translate(75 0)"/>
       <use xlink:href="#TimesNewRomanPSMT-34" transform="translate(125 0)"/>
      </g>
     </g>
    </g>
    <g id="ytick_6">
     <g id="line2d_21">
      <path d="M 60.7325 129.455 
L 489.8325 129.455 
" clip-path="url(#pafddd45278)" style="fill: none; stroke: #b0b0b0; stroke-width: 0.8; stroke-linecap: square"/>
     </g>
     <g id="line2d_22">
      <g>
       <use xlink:href="#mf418262688" x="60.7325" y="129.455" style="stroke: #000000; stroke-width: 0.8"/>
      </g>
     </g>
     <g id="text_12">
      <!-- 0.05 -->
      <g transform="translate(25.7325 135.01) scale(0.16 -0.16)">
       <defs>
        <path id="TimesNewRomanPSMT-35" d="M 2778 4238 
L 2534 3706 
L 1259 3706 
L 981 3138 
Q 1809 3016 2294 2522 
Q 2709 2097 2709 1522 
Q 2709 1188 2573 903 
Q 2438 619 2231 419 
Q 2025 219 1772 97 
Q 1413 -75 1034 -75 
Q 653 -75 479 54 
Q 306 184 306 341 
Q 306 428 378 495 
Q 450 563 559 563 
Q 641 563 702 538 
Q 763 513 909 409 
Q 1144 247 1384 247 
Q 1750 247 2026 523 
Q 2303 800 2303 1197 
Q 2303 1581 2056 1914 
Q 1809 2247 1375 2428 
Q 1034 2569 447 2591 
L 1259 4238 
L 2778 4238 
z
" transform="scale(0.015625)"/>
       </defs>
       <use xlink:href="#TimesNewRomanPSMT-30"/>
       <use xlink:href="#TimesNewRomanPSMT-2e" transform="translate(50 0)"/>
       <use xlink:href="#TimesNewRomanPSMT-30" transform="translate(75 0)"/>
       <use xlink:href="#TimesNewRomanPSMT-35" transform="translate(125 0)"/>
      </g>
     </g>
    </g>
    <g id="ytick_7">
     <g id="line2d_23">
      <path d="M 60.7325 90.555 
L 489.8325 90.555 
" clip-path="url(#pafddd45278)" style="fill: none; stroke: #b0b0b0; stroke-width: 0.8; stroke-linecap: square"/>
     </g>
     <g id="line2d_24">
      <g>
       <use xlink:href="#mf418262688" x="60.7325" y="90.555" style="stroke: #000000; stroke-width: 0.8"/>
      </g>
     </g>
     <g id="text_13">
      <!-- 0.06 -->
      <g transform="translate(25.7325 96.11) scale(0.16 -0.16)">
       <use xlink:href="#TimesNewRomanPSMT-30"/>
       <use xlink:href="#TimesNewRomanPSMT-2e" transform="translate(50 0)"/>
       <use xlink:href="#TimesNewRomanPSMT-30" transform="translate(75 0)"/>
       <use xlink:href="#TimesNewRomanPSMT-36" transform="translate(125 0)"/>
      </g>
     </g>
    </g>
    <g id="ytick_8">
     <g id="line2d_25">
      <path d="M 60.7325 51.655 
L 489.8325 51.655 
" clip-path="url(#pafddd45278)" style="fill: none; stroke: #b0b0b0; stroke-width: 0.8; stroke-linecap: square"/>
     </g>
     <g id="line2d_26">
      <g>
       <use xlink:href="#mf418262688" x="60.7325" y="51.655" style="stroke: #000000; stroke-width: 0.8"/>
      </g>
     </g>
     <g id="text_14">
      <!-- 0.07 -->
      <g transform="translate(25.7325 57.21) scale(0.16 -0.16)">
       <defs>
        <path id="TimesNewRomanPSMT-37" d="M 644 4238 
L 2916 4238 
L 2916 4119 
L 1503 -88 
L 1153 -88 
L 2419 3728 
L 1253 3728 
Q 900 3728 750 3644 
Q 488 3500 328 3200 
L 238 3234 
L 644 4238 
z
" transform="scale(0.015625)"/>
       </defs>
       <use xlink:href="#TimesNewRomanPSMT-30"/>
       <use xlink:href="#TimesNewRomanPSMT-2e" transform="translate(50 0)"/>
       <use xlink:href="#TimesNewRomanPSMT-30" transform="translate(75 0)"/>
       <use xlink:href="#TimesNewRomanPSMT-37" transform="translate(125 0)"/>
      </g>
     </g>
    </g>
    <g id="ytick_9">
     <g id="line2d_27">
      <path d="M 60.7325 12.755 
L 489.8325 12.755 
" clip-path="url(#pafddd45278)" style="fill: none; stroke: #b0b0b0; stroke-width: 0.8; stroke-linecap: square"/>
     </g>
     <g id="line2d_28">
      <g>
       <use xlink:href="#mf418262688" x="60.7325" y="12.755" style="stroke: #000000; stroke-width: 0.8"/>
      </g>
     </g>
     <g id="text_15">
      <!-- 0.08 -->
      <g transform="translate(25.7325 18.31) scale(0.16 -0.16)">
       <use xlink:href="#TimesNewRomanPSMT-30"/>
       <use xlink:href="#TimesNewRomanPSMT-2e" transform="translate(50 0)"/>
       <use xlink:href="#TimesNewRomanPSMT-30" transform="translate(75 0)"/>
       <use xlink:href="#TimesNewRomanPSMT-38" transform="translate(125 0)"/>
      </g>
     </g>
    </g>
    <g id="text_16">
     <!-- Fork rate -->
     <g transform="translate(18.31 197.45625) rotate(-90) scale(0.16 -0.16)">
      <defs>
       <path id="TimesNewRomanPSMT-46" d="M 1309 4006 
L 1309 2341 
L 2081 2341 
Q 2347 2341 2470 2458 
Q 2594 2575 2634 2922 
L 2750 2922 
L 2750 1488 
L 2634 1488 
Q 2631 1734 2570 1850 
Q 2509 1966 2401 2023 
Q 2294 2081 2081 2081 
L 1309 2081 
L 1309 750 
Q 1309 428 1350 325 
Q 1381 247 1481 191 
Q 1619 116 1769 116 
L 1922 116 
L 1922 0 
L 103 0 
L 103 116 
L 253 116 
Q 516 116 634 269 
Q 709 369 709 750 
L 709 3488 
Q 709 3809 669 3913 
Q 638 3991 541 4047 
Q 406 4122 253 4122 
L 103 4122 
L 103 4238 
L 3256 4238 
L 3297 3306 
L 3188 3306 
Q 3106 3603 2998 3742 
Q 2891 3881 2733 3943 
Q 2575 4006 2244 4006 
L 1309 4006 
z
" transform="scale(0.015625)"/>
       <path id="TimesNewRomanPSMT-72" d="M 1038 2947 
L 1038 2303 
Q 1397 2947 1775 2947 
Q 1947 2947 2059 2842 
Q 2172 2738 2172 2600 
Q 2172 2478 2090 2393 
Q 2009 2309 1897 2309 
Q 1788 2309 1652 2417 
Q 1516 2525 1450 2525 
Q 1394 2525 1328 2463 
Q 1188 2334 1038 2041 
L 1038 669 
Q 1038 431 1097 309 
Q 1138 225 1241 169 
Q 1344 113 1538 113 
L 1538 0 
L 72 0 
L 72 113 
Q 291 113 397 181 
Q 475 231 506 341 
Q 522 394 522 644 
L 522 1753 
Q 522 2253 501 2348 
Q 481 2444 426 2487 
Q 372 2531 291 2531 
Q 194 2531 72 2484 
L 41 2597 
L 906 2947 
L 1038 2947 
z
" transform="scale(0.015625)"/>
       <path id="TimesNewRomanPSMT-61" d="M 1822 413 
Q 1381 72 1269 19 
Q 1100 -59 909 -59 
Q 613 -59 420 144 
Q 228 347 228 678 
Q 228 888 322 1041 
Q 450 1253 767 1440 
Q 1084 1628 1822 1897 
L 1822 2009 
Q 1822 2438 1686 2597 
Q 1550 2756 1291 2756 
Q 1094 2756 978 2650 
Q 859 2544 859 2406 
L 866 2225 
Q 866 2081 792 2003 
Q 719 1925 600 1925 
Q 484 1925 411 2006 
Q 338 2088 338 2228 
Q 338 2497 613 2722 
Q 888 2947 1384 2947 
Q 1766 2947 2009 2819 
Q 2194 2722 2281 2516 
Q 2338 2381 2338 1966 
L 2338 994 
Q 2338 584 2353 492 
Q 2369 400 2405 369 
Q 2441 338 2488 338 
Q 2538 338 2575 359 
Q 2641 400 2828 588 
L 2828 413 
Q 2478 -56 2159 -56 
Q 2006 -56 1915 50 
Q 1825 156 1822 413 
z
M 1822 616 
L 1822 1706 
Q 1350 1519 1213 1441 
Q 966 1303 859 1153 
Q 753 1003 753 825 
Q 753 600 887 451 
Q 1022 303 1197 303 
Q 1434 303 1822 616 
z
" transform="scale(0.015625)"/>
      </defs>
      <use xlink:href="#TimesNewRomanPSMT-46"/>
      <use xlink:href="#TimesNewRomanPSMT-6f" transform="translate(55.615234 0)"/>
      <use xlink:href="#TimesNewRomanPSMT-72" transform="translate(105.615234 0)"/>
      <use xlink:href="#TimesNewRomanPSMT-6b" transform="translate(138.916016 0)"/>
      <use xlink:href="#TimesNewRomanPSMT-20" transform="translate(188.916016 0)"/>
      <use xlink:href="#TimesNewRomanPSMT-72" transform="translate(213.916016 0)"/>
      <use xlink:href="#TimesNewRomanPSMT-61" transform="translate(247.216797 0)"/>
      <use xlink:href="#TimesNewRomanPSMT-74" transform="translate(291.601562 0)"/>
      <use xlink:href="#TimesNewRomanPSMT-65" transform="translate(319.384766 0)"/>
     </g>
    </g>
   </g>
   <g id="line2d_29">
    <path d="M 86.4785 98.074093 
L 88.772188 108.291045 
L 91.065875 117.623956 
L 93.741844 127.54071 
L 96.417813 136.548118 
L 99.093782 144.765753 
L 101.769751 152.293105 
L 104.44572 159.213633 
L 107.50397 166.469728 
L 110.562221 173.113675 
L 113.620471 179.219792 
L 116.678721 184.850838 
L 119.736971 190.060175 
L 123.177503 195.473199 
L 126.618035 200.465596 
L 130.058566 205.084557 
L 133.881379 209.827681 
L 137.704192 214.206837 
L 141.527005 218.262368 
L 145.732099 222.390807 
L 149.937193 226.208866 
L 154.524568 230.059543 
L 159.111943 233.61834 
L 164.0816 237.181295 
L 169.051257 240.473874 
L 174.403195 243.751267 
L 180.137414 246.988733 
L 185.871633 249.974983 
L 191.988134 252.915056 
L 198.486915 255.793213 
L 205.367978 258.59694 
L 212.631323 261.316616 
L 220.276948 263.945174 
L 228.687137 266.593031 
L 237.479606 269.122427 
L 247.036638 271.630336 
L 256.975951 274.006256 
L 267.679827 276.334889 
L 279.148266 278.600377 
L 291.381267 280.790782 
L 304.761112 282.95644 
L 319.2878 285.074387 
L 334.961333 287.127082 
L 351.781709 289.101792 
L 370.131211 291.027848 
L 390.009837 292.887756 
L 411.79987 294.699185 
L 435.50131 296.443972 
L 461.496437 298.133003 
L 468.3775 298.545939 
L 468.3775 298.545939 
" clip-path="url(#pafddd45278)" style="fill: none; stroke-dasharray: 5.55,2.4; stroke-dashoffset: 0; stroke: #008000; stroke-width: 1.5"/>
   </g>
   <g id="line2d_30">
    <path d="M 86.4785 131.689865 
L 88.772188 140.424719 
L 91.065875 148.400527 
L 93.741844 156.871892 
L 96.417813 164.563436 
L 99.093782 171.578085 
L 101.769751 178.001418 
L 104.44572 183.905171 
L 107.50397 190.093389 
L 110.562221 195.757933 
L 113.620471 200.962573 
L 116.678721 205.761129 
L 120.119253 210.73079 
L 123.559784 215.299425 
L 127.000316 219.513689 
L 130.823129 223.828659 
L 134.645941 227.801248 
L 138.468754 231.47065 
L 142.673848 235.196566 
L 146.878942 238.633908 
L 151.466318 242.092414 
L 156.053693 245.281469 
L 161.02335 248.467254 
L 166.375288 251.621621 
L 171.727226 254.52295 
L 177.461445 257.383885 
L 183.577945 260.186627 
L 190.076727 262.917032 
L 196.95779 265.564253 
L 204.221135 268.120341 
L 211.86676 270.579847 
L 220.276948 273.046607 
L 229.069418 275.392944 
L 238.62645 277.709705 
L 248.948045 279.97569 
L 260.034202 282.174548 
L 271.884921 284.294245 
L 284.500204 286.326465 
L 298.26233 288.318485 
L 313.1713 290.251411 
L 329.609395 292.153255 
L 347.576615 294.000765 
L 367.07296 295.77707 
L 388.480712 297.499692 
L 411.79987 299.151416 
L 437.794997 300.765393 
L 466.466094 302.318237 
L 468.3775 302.414398 
L 468.3775 302.414398 
" clip-path="url(#pafddd45278)" style="fill: none; stroke-dasharray: 5.55,2.4; stroke-dashoffset: 0; stroke: #0000ff; stroke-width: 1.5"/>
   </g>
   <g id="line2d_31">
    <path d="M 86.4785 148.613225 
L 88.772188 156.596787 
L 91.448157 165.03856 
L 94.124126 172.669703 
L 96.800095 179.601616 
L 99.476064 185.926183 
L 102.152033 191.719866 
L 105.210283 197.772972 
L 108.268533 203.296211 
L 111.326783 208.356236 
L 114.385034 213.008969 
L 117.825565 217.815026 
L 121.266097 222.222009 
L 124.706628 226.277639 
L 128.529441 230.42075 
L 132.352254 234.226707 
L 136.175067 237.735054 
L 140.380161 241.290439 
L 144.585255 244.564224 
L 149.17263 247.852147 
L 153.760006 250.878572 
L 158.729662 253.896795 
L 164.0816 256.880244 
L 169.815819 259.807132 
L 175.550039 262.489268 
L 181.666539 265.113556 
L 188.165321 267.666986 
L 195.046384 270.139683 
L 202.69201 272.644188 
L 210.719916 275.034721 
L 219.130105 277.311301 
L 228.304855 279.564862 
L 238.244169 281.77271 
L 248.948045 283.917266 
L 260.416483 285.985527 
L 273.031765 288.027081 
L 286.41161 289.965407 
L 300.938299 291.846174 
L 316.994113 293.696717 
L 334.579052 295.493289 
L 353.693116 297.218781 
L 374.718586 298.890285 
L 398.037744 300.515543 
L 423.65059 302.073923 
L 452.321686 303.589596 
L 468.3775 304.35008 
L 468.3775 304.35008 
" clip-path="url(#pafddd45278)" style="fill: none; stroke-dasharray: 5.55,2.4; stroke-dashoffset: 0; stroke: #ffa500; stroke-width: 1.5"/>
   </g>
   <g id="line2d_32">
    <path d="M 86.4785 172.110621 
L 88.772188 178.84199 
L 91.448157 185.977777 
L 94.124126 192.444441 
L 96.800095 198.33191 
L 99.476064 203.714685 
L 102.534314 209.327816 
L 105.592564 214.440134 
L 108.650814 219.115814 
L 111.709065 223.408516 
L 115.149596 227.836045 
L 118.590128 231.890029 
L 122.030659 235.615835 
L 125.853472 239.417109 
L 129.676285 242.904699 
L 133.881379 246.423077 
L 138.086473 249.648668 
L 142.673848 252.874657 
L 147.261224 255.832166 
L 152.23088 258.77036 
L 157.582818 261.663683 
L 162.934756 264.311056 
L 168.668975 266.908678 
L 174.785476 269.441138 
L 181.284258 271.896597 
L 188.165321 274.266357 
L 195.810946 276.658557 
L 203.838853 278.934384 
L 212.631323 281.188229 
L 221.806074 283.311408 
L 231.745387 285.385757 
L 242.449263 287.395206 
L 254.299982 289.389031 
L 266.915265 291.285628 
L 280.677391 293.130676 
L 295.968642 294.950734 
L 312.406737 296.681881 
L 330.756239 298.385478 
L 351.017147 300.035245 
L 373.189461 301.612776 
L 397.655463 303.128399 
L 425.179715 304.605109 
L 455.762218 306.018226 
L 468.3775 306.542765 
L 468.3775 306.542765 
" clip-path="url(#pafddd45278)" style="fill: none; stroke: #ff0000; stroke-width: 1.5; stroke-linecap: square"/>
   </g>
   <g id="patch_3">
    <path d="M 60.7325 323.955 
L 60.7325 12.755 
" style="fill: none; stroke: #000000; stroke-width: 0.8; stroke-linejoin: miter; stroke-linecap: square"/>
   </g>
   <g id="patch_4">
    <path d="M 489.8325 323.955 
L 489.8325 12.755 
" style="fill: none; stroke: #000000; stroke-width: 0.8; stroke-linejoin: miter; stroke-linecap: square"/>
   </g>
   <g id="patch_5">
    <path d="M 60.7325 323.955 
L 489.8325 323.955 
" style="fill: none; stroke: #000000; stroke-width: 0.8; stroke-linejoin: miter; stroke-linecap: square"/>
   </g>
   <g id="patch_6">
    <path d="M 60.7325 12.755 
L 489.8325 12.755 
" style="fill: none; stroke: #000000; stroke-width: 0.8; stroke-linejoin: miter; stroke-linecap: square"/>
   </g>
   <g id="legend_1">
    <g id="patch_7">
     <path d="M 321.065 177.225 
L 482.8325 177.225 
Q 484.8325 177.225 484.8325 175.225 
L 484.8325 19.755 
Q 484.8325 17.755 482.8325 17.755 
L 321.065 17.755 
Q 319.065 17.755 319.065 19.755 
L 319.065 175.225 
Q 319.065 177.225 321.065 177.225 
z
" style="fill: #ffffff; opacity: 0.8; stroke: #cccccc; stroke-linejoin: miter"/>
    </g>
    <g id="line2d_33">
     <path d="M 323.065 29.365 
L 333.065 29.365 
L 343.065 29.365 
" style="fill: none; stroke-dasharray: 5.55,2.4; stroke-dashoffset: 0; stroke: #008000; stroke-width: 1.5"/>
    </g>
    <g id="text_17">
     <!-- PoW Theory c=0.3 -->
     <g transform="translate(351.065 32.865) scale(0.16 -0.16)">
      <defs>
       <path id="TimesNewRomanPSMT-50" d="M 1313 1984 
L 1313 750 
Q 1313 350 1400 253 
Q 1519 116 1759 116 
L 1922 116 
L 1922 0 
L 106 0 
L 106 116 
L 266 116 
Q 534 116 650 291 
Q 713 388 713 750 
L 713 3488 
Q 713 3888 628 3984 
Q 506 4122 266 4122 
L 106 4122 
L 106 4238 
L 1659 4238 
Q 2228 4238 2556 4120 
Q 2884 4003 3109 3725 
Q 3334 3447 3334 3066 
Q 3334 2547 2992 2222 
Q 2650 1897 2025 1897 
Q 1872 1897 1694 1919 
Q 1516 1941 1313 1984 
z
M 1313 2163 
Q 1478 2131 1606 2115 
Q 1734 2100 1825 2100 
Q 2150 2100 2386 2351 
Q 2622 2603 2622 3003 
Q 2622 3278 2509 3514 
Q 2397 3750 2190 3867 
Q 1984 3984 1722 3984 
Q 1563 3984 1313 3925 
L 1313 2163 
z
" transform="scale(0.015625)"/>
       <path id="TimesNewRomanPSMT-57" d="M 5991 4238 
L 5991 4122 
Q 5825 4122 5722 4062 
Q 5619 4003 5525 3841 
Q 5463 3731 5328 3319 
L 4147 -97 
L 4022 -97 
L 3056 2613 
L 2097 -97 
L 1984 -97 
L 725 3422 
Q 584 3816 547 3888 
Q 484 4006 376 4064 
Q 269 4122 84 4122 
L 84 4238 
L 1653 4238 
L 1653 4122 
L 1578 4122 
Q 1413 4122 1325 4047 
Q 1238 3972 1238 3866 
Q 1238 3756 1375 3363 
L 2209 984 
L 2913 3006 
L 2788 3363 
L 2688 3647 
Q 2622 3803 2541 3922 
Q 2500 3981 2441 4022 
Q 2363 4078 2284 4103 
Q 2225 4122 2097 4122 
L 2097 4238 
L 3747 4238 
L 3747 4122 
L 3634 4122 
Q 3459 4122 3378 4047 
Q 3297 3972 3297 3844 
Q 3297 3684 3438 3288 
L 4250 984 
L 5056 3319 
Q 5194 3706 5194 3856 
Q 5194 3928 5148 3990 
Q 5103 4053 5034 4078 
Q 4916 4122 4725 4122 
L 4725 4238 
L 5991 4238 
z
" transform="scale(0.015625)"/>
       <path id="TimesNewRomanPSMT-54" d="M 3703 4238 
L 3750 3244 
L 3631 3244 
Q 3597 3506 3538 3619 
Q 3441 3800 3280 3886 
Q 3119 3972 2856 3972 
L 2259 3972 
L 2259 734 
Q 2259 344 2344 247 
Q 2463 116 2709 116 
L 2856 116 
L 2856 0 
L 1059 0 
L 1059 116 
L 1209 116 
Q 1478 116 1591 278 
Q 1659 378 1659 734 
L 1659 3972 
L 1150 3972 
Q 853 3972 728 3928 
Q 566 3869 450 3700 
Q 334 3531 313 3244 
L 194 3244 
L 244 4238 
L 3703 4238 
z
" transform="scale(0.015625)"/>
       <path id="TimesNewRomanPSMT-68" d="M 1041 4444 
L 1041 2350 
Q 1388 2731 1591 2839 
Q 1794 2947 1997 2947 
Q 2241 2947 2416 2812 
Q 2591 2678 2675 2391 
Q 2734 2191 2734 1659 
L 2734 647 
Q 2734 375 2778 275 
Q 2809 200 2884 156 
Q 2959 113 3159 113 
L 3159 0 
L 1753 0 
L 1753 113 
L 1819 113 
Q 2019 113 2097 173 
Q 2175 234 2206 353 
Q 2216 403 2216 647 
L 2216 1659 
Q 2216 2128 2167 2275 
Q 2119 2422 2012 2495 
Q 1906 2569 1756 2569 
Q 1603 2569 1437 2487 
Q 1272 2406 1041 2159 
L 1041 647 
Q 1041 353 1073 281 
Q 1106 209 1195 161 
Q 1284 113 1503 113 
L 1503 0 
L 84 0 
L 84 113 
Q 275 113 384 172 
Q 447 203 484 290 
Q 522 378 522 647 
L 522 3238 
Q 522 3728 498 3840 
Q 475 3953 426 3993 
Q 378 4034 297 4034 
Q 231 4034 84 3984 
L 41 4094 
L 897 4444 
L 1041 4444 
z
" transform="scale(0.015625)"/>
       <path id="TimesNewRomanPSMT-79" d="M 38 2863 
L 1372 2863 
L 1372 2747 
L 1306 2747 
Q 1166 2747 1095 2686 
Q 1025 2625 1025 2534 
Q 1025 2413 1128 2197 
L 1825 753 
L 2466 2334 
Q 2519 2463 2519 2588 
Q 2519 2644 2497 2672 
Q 2472 2706 2419 2726 
Q 2366 2747 2231 2747 
L 2231 2863 
L 3163 2863 
L 3163 2747 
Q 3047 2734 2984 2696 
Q 2922 2659 2847 2556 
Q 2819 2513 2741 2316 
L 1575 -541 
Q 1406 -956 1132 -1168 
Q 859 -1381 606 -1381 
Q 422 -1381 303 -1275 
Q 184 -1169 184 -1031 
Q 184 -900 270 -820 
Q 356 -741 506 -741 
Q 609 -741 788 -809 
Q 913 -856 944 -856 
Q 1038 -856 1148 -759 
Q 1259 -663 1372 -384 
L 1575 113 
L 547 2272 
Q 500 2369 397 2513 
Q 319 2622 269 2659 
Q 197 2709 38 2747 
L 38 2863 
z
" transform="scale(0.015625)"/>
       <path id="TimesNewRomanPSMT-3d" d="M 116 2759 
L 3488 2759 
L 3488 2503 
L 116 2503 
L 116 2759 
z
M 116 1741 
L 3488 1741 
L 3488 1484 
L 116 1484 
L 116 1741 
z
" transform="scale(0.015625)"/>
      </defs>
      <use xlink:href="#TimesNewRomanPSMT-50"/>
      <use xlink:href="#TimesNewRomanPSMT-6f" transform="translate(55.615234 0)"/>
      <use xlink:href="#TimesNewRomanPSMT-57" transform="translate(105.615234 0)"/>
      <use xlink:href="#TimesNewRomanPSMT-20" transform="translate(198.25 0)"/>
      <use xlink:href="#TimesNewRomanPSMT-54" transform="translate(221.5 0)"/>
      <use xlink:href="#TimesNewRomanPSMT-68" transform="translate(282.583984 0)"/>
      <use xlink:href="#TimesNewRomanPSMT-65" transform="translate(332.583984 0)"/>
      <use xlink:href="#TimesNewRomanPSMT-6f" transform="translate(376.96875 0)"/>
      <use xlink:href="#TimesNewRomanPSMT-72" transform="translate(426.96875 0)"/>
      <use xlink:href="#TimesNewRomanPSMT-79" transform="translate(460.269531 0)"/>
      <use xlink:href="#TimesNewRomanPSMT-20" transform="translate(510.269531 0)"/>
      <use xlink:href="#TimesNewRomanPSMT-63" transform="translate(535.269531 0)"/>
      <use xlink:href="#TimesNewRomanPSMT-3d" transform="translate(579.654297 0)"/>
      <use xlink:href="#TimesNewRomanPSMT-30" transform="translate(636.050781 0)"/>
      <use xlink:href="#TimesNewRomanPSMT-2e" transform="translate(686.050781 0)"/>
      <use xlink:href="#TimesNewRomanPSMT-33" transform="translate(711.050781 0)"/>
     </g>
    </g>
    <g id="line2d_34">
     <path d="M 323.065 48.9275 
L 333.065 48.9275 
L 343.065 48.9275 
" style="fill: none; stroke-dasharray: 5.55,2.4; stroke-dashoffset: 0; stroke: #0000ff; stroke-width: 1.5"/>
    </g>
    <g id="text_18">
     <!-- PoW Theory c=0.4 -->
     <g transform="translate(351.065 52.4275) scale(0.16 -0.16)">
      <use xlink:href="#TimesNewRomanPSMT-50"/>
      <use xlink:href="#TimesNewRomanPSMT-6f" transform="translate(55.615234 0)"/>
      <use xlink:href="#TimesNewRomanPSMT-57" transform="translate(105.615234 0)"/>
      <use xlink:href="#TimesNewRomanPSMT-20" transform="translate(198.25 0)"/>
      <use xlink:href="#TimesNewRomanPSMT-54" transform="translate(221.5 0)"/>
      <use xlink:href="#TimesNewRomanPSMT-68" transform="translate(282.583984 0)"/>
      <use xlink:href="#TimesNewRomanPSMT-65" transform="translate(332.583984 0)"/>
      <use xlink:href="#TimesNewRomanPSMT-6f" transform="translate(376.96875 0)"/>
      <use xlink:href="#TimesNewRomanPSMT-72" transform="translate(426.96875 0)"/>
      <use xlink:href="#TimesNewRomanPSMT-79" transform="translate(460.269531 0)"/>
      <use xlink:href="#TimesNewRomanPSMT-20" transform="translate(510.269531 0)"/>
      <use xlink:href="#TimesNewRomanPSMT-63" transform="translate(535.269531 0)"/>
      <use xlink:href="#TimesNewRomanPSMT-3d" transform="translate(579.654297 0)"/>
      <use xlink:href="#TimesNewRomanPSMT-30" transform="translate(636.050781 0)"/>
      <use xlink:href="#TimesNewRomanPSMT-2e" transform="translate(686.050781 0)"/>
      <use xlink:href="#TimesNewRomanPSMT-34" transform="translate(711.050781 0)"/>
     </g>
    </g>
    <g id="line2d_35">
     <path d="M 323.065 68.49 
L 333.065 68.49 
L 343.065 68.49 
" style="fill: none; stroke-dasharray: 5.55,2.4; stroke-dashoffset: 0; stroke: #ffa500; stroke-width: 1.5"/>
    </g>
    <g id="text_19">
     <!-- PoW Theory c=0.45 -->
     <g transform="translate(351.065 71.99) scale(0.16 -0.16)">
      <use xlink:href="#TimesNewRomanPSMT-50"/>
      <use xlink:href="#TimesNewRomanPSMT-6f" transform="translate(55.615234 0)"/>
      <use xlink:href="#TimesNewRomanPSMT-57" transform="translate(105.615234 0)"/>
      <use xlink:href="#TimesNewRomanPSMT-20" transform="translate(198.25 0)"/>
      <use xlink:href="#TimesNewRomanPSMT-54" transform="translate(221.5 0)"/>
      <use xlink:href="#TimesNewRomanPSMT-68" transform="translate(282.583984 0)"/>
      <use xlink:href="#TimesNewRomanPSMT-65" transform="translate(332.583984 0)"/>
      <use xlink:href="#TimesNewRomanPSMT-6f" transform="translate(376.96875 0)"/>
      <use xlink:href="#TimesNewRomanPSMT-72" transform="translate(426.96875 0)"/>
      <use xlink:href="#TimesNewRomanPSMT-79" transform="translate(460.269531 0)"/>
      <use xlink:href="#TimesNewRomanPSMT-20" transform="translate(510.269531 0)"/>
      <use xlink:href="#TimesNewRomanPSMT-63" transform="translate(535.269531 0)"/>
      <use xlink:href="#TimesNewRomanPSMT-3d" transform="translate(579.654297 0)"/>
      <use xlink:href="#TimesNewRomanPSMT-30" transform="translate(636.050781 0)"/>
      <use xlink:href="#TimesNewRomanPSMT-2e" transform="translate(686.050781 0)"/>
      <use xlink:href="#TimesNewRomanPSMT-34" transform="translate(711.050781 0)"/>
      <use xlink:href="#TimesNewRomanPSMT-35" transform="translate(761.050781 0)"/>
     </g>
    </g>
    <g id="line2d_36">
     <path d="M 323.065 88.0525 
L 333.065 88.0525 
L 343.065 88.0525 
" style="fill: none; stroke: #ff0000; stroke-width: 1.5; stroke-linecap: square"/>
    </g>
    <g id="text_20">
     <!-- VDF Theory -->
     <g transform="translate(351.065 91.5525) scale(0.16 -0.16)">
      <defs>
       <path id="TimesNewRomanPSMT-56" d="M 4544 4238 
L 4544 4122 
Q 4319 4081 4203 3978 
Q 4038 3825 3909 3509 
L 2431 -97 
L 2316 -97 
L 728 3556 
Q 606 3838 556 3900 
Q 478 3997 364 4051 
Q 250 4106 56 4122 
L 56 4238 
L 1788 4238 
L 1788 4122 
Q 1494 4094 1406 4022 
Q 1319 3950 1319 3838 
Q 1319 3681 1463 3350 
L 2541 866 
L 3541 3319 
Q 3688 3681 3688 3822 
Q 3688 3913 3597 3995 
Q 3506 4078 3291 4113 
Q 3275 4116 3238 4122 
L 3238 4238 
L 4544 4238 
z
" transform="scale(0.015625)"/>
       <path id="TimesNewRomanPSMT-44" d="M 109 0 
L 109 116 
L 269 116 
Q 538 116 650 288 
Q 719 391 719 750 
L 719 3488 
Q 719 3884 631 3984 
Q 509 4122 269 4122 
L 109 4122 
L 109 4238 
L 1834 4238 
Q 2784 4238 3279 4022 
Q 3775 3806 4076 3303 
Q 4378 2800 4378 2141 
Q 4378 1256 3841 663 
Q 3238 0 2003 0 
L 109 0 
z
M 1319 306 
Q 1716 219 1984 219 
Q 2709 219 3187 728 
Q 3666 1238 3666 2109 
Q 3666 2988 3187 3494 
Q 2709 4000 1959 4000 
Q 1678 4000 1319 3909 
L 1319 306 
z
" transform="scale(0.015625)"/>
      </defs>
      <use xlink:href="#TimesNewRomanPSMT-56"/>
      <use xlink:href="#TimesNewRomanPSMT-44" transform="translate(72.216797 0)"/>
      <use xlink:href="#TimesNewRomanPSMT-46" transform="translate(144.433594 0)"/>
      <use xlink:href="#TimesNewRomanPSMT-20" transform="translate(200.048828 0)"/>
      <use xlink:href="#TimesNewRomanPSMT-54" transform="translate(223.298828 0)"/>
      <use xlink:href="#TimesNewRomanPSMT-68" transform="translate(284.382812 0)"/>
      <use xlink:href="#TimesNewRomanPSMT-65" transform="translate(334.382812 0)"/>
      <use xlink:href="#TimesNewRomanPSMT-6f" transform="translate(378.767578 0)"/>
      <use xlink:href="#TimesNewRomanPSMT-72" transform="translate(428.767578 0)"/>
      <use xlink:href="#TimesNewRomanPSMT-79" transform="translate(462.068359 0)"/>
     </g>
    </g>
    <g id="PathCollection_5">
     <g>
      <use xlink:href="#mcb299c0e5c" x="333.065" y="108.49" style="fill: #008000; stroke: #008000"/>
     </g>
    </g>
    <g id="text_21">
     <!-- PoW Sim pow_c1 -->
     <g transform="translate(351.065 111.115) scale(0.16 -0.16)">
      <defs>
       <path id="TimesNewRomanPSMT-53" d="M 2934 4334 
L 2934 2869 
L 2819 2869 
Q 2763 3291 2617 3541 
Q 2472 3791 2203 3937 
Q 1934 4084 1647 4084 
Q 1322 4084 1109 3886 
Q 897 3688 897 3434 
Q 897 3241 1031 3081 
Q 1225 2847 1953 2456 
Q 2547 2138 2764 1967 
Q 2981 1797 3098 1565 
Q 3216 1334 3216 1081 
Q 3216 600 2842 251 
Q 2469 -97 1881 -97 
Q 1697 -97 1534 -69 
Q 1438 -53 1133 45 
Q 828 144 747 144 
Q 669 144 623 97 
Q 578 50 556 -97 
L 441 -97 
L 441 1356 
L 556 1356 
Q 638 900 775 673 
Q 913 447 1195 297 
Q 1478 147 1816 147 
Q 2206 147 2432 353 
Q 2659 559 2659 841 
Q 2659 997 2573 1156 
Q 2488 1316 2306 1453 
Q 2184 1547 1640 1851 
Q 1097 2156 867 2337 
Q 638 2519 519 2737 
Q 400 2956 400 3219 
Q 400 3675 750 4004 
Q 1100 4334 1641 4334 
Q 1978 4334 2356 4169 
Q 2531 4091 2603 4091 
Q 2684 4091 2736 4139 
Q 2788 4188 2819 4334 
L 2934 4334 
z
" transform="scale(0.015625)"/>
       <path id="TimesNewRomanPSMT-70" d="M -6 2578 
L 875 2934 
L 994 2934 
L 994 2266 
Q 1216 2644 1439 2795 
Q 1663 2947 1909 2947 
Q 2341 2947 2628 2609 
Q 2981 2197 2981 1534 
Q 2981 794 2556 309 
Q 2206 -88 1675 -88 
Q 1444 -88 1275 -22 
Q 1150 25 994 166 
L 994 -706 
Q 994 -1000 1030 -1079 
Q 1066 -1159 1155 -1206 
Q 1244 -1253 1478 -1253 
L 1478 -1369 
L -22 -1369 
L -22 -1253 
L 56 -1253 
Q 228 -1256 350 -1188 
Q 409 -1153 442 -1076 
Q 475 -1000 475 -688 
L 475 2019 
Q 475 2297 450 2372 
Q 425 2447 370 2484 
Q 316 2522 222 2522 
Q 147 2522 31 2478 
L -6 2578 
z
M 994 2081 
L 994 1013 
Q 994 666 1022 556 
Q 1066 375 1236 237 
Q 1406 100 1666 100 
Q 1978 100 2172 344 
Q 2425 663 2425 1241 
Q 2425 1897 2138 2250 
Q 1938 2494 1663 2494 
Q 1513 2494 1366 2419 
Q 1253 2363 994 2081 
z
" transform="scale(0.015625)"/>
       <path id="TimesNewRomanPSMT-77" d="M 41 2863 
L 1241 2863 
L 1241 2747 
Q 1075 2734 1023 2687 
Q 972 2641 972 2553 
Q 972 2456 1025 2319 
L 1638 672 
L 2253 2013 
L 2091 2434 
Q 2016 2622 1894 2694 
Q 1825 2738 1638 2747 
L 1638 2863 
L 3000 2863 
L 3000 2747 
Q 2775 2738 2681 2666 
Q 2619 2616 2619 2506 
Q 2619 2444 2644 2378 
L 3294 734 
L 3897 2319 
Q 3959 2488 3959 2588 
Q 3959 2647 3898 2694 
Q 3838 2741 3659 2747 
L 3659 2863 
L 4563 2863 
L 4563 2747 
Q 4291 2706 4163 2378 
L 3206 -88 
L 3078 -88 
L 2363 1741 
L 1528 -88 
L 1413 -88 
L 494 2319 
Q 403 2547 315 2626 
Q 228 2706 41 2747 
L 41 2863 
z
" transform="scale(0.015625)"/>
       <path id="TimesNewRomanPSMT-5f" d="M 3256 -1381 
L -53 -1381 
L -53 -1119 
L 3256 -1119 
L 3256 -1381 
z
" transform="scale(0.015625)"/>
      </defs>
      <use xlink:href="#TimesNewRomanPSMT-50"/>
      <use xlink:href="#TimesNewRomanPSMT-6f" transform="translate(55.615234 0)"/>
      <use xlink:href="#TimesNewRomanPSMT-57" transform="translate(105.615234 0)"/>
      <use xlink:href="#TimesNewRomanPSMT-20" transform="translate(198.25 0)"/>
      <use xlink:href="#TimesNewRomanPSMT-53" transform="translate(223.25 0)"/>
      <use xlink:href="#TimesNewRomanPSMT-69" transform="translate(278.865234 0)"/>
      <use xlink:href="#TimesNewRomanPSMT-6d" transform="translate(306.648438 0)"/>
      <use xlink:href="#TimesNewRomanPSMT-20" transform="translate(384.431641 0)"/>
      <use xlink:href="#TimesNewRomanPSMT-70" transform="translate(409.431641 0)"/>
      <use xlink:href="#TimesNewRomanPSMT-6f" transform="translate(459.431641 0)"/>
      <use xlink:href="#TimesNewRomanPSMT-77" transform="translate(509.431641 0)"/>
      <use xlink:href="#TimesNewRomanPSMT-5f" transform="translate(581.648438 0)"/>
      <use xlink:href="#TimesNewRomanPSMT-63" transform="translate(631.648438 0)"/>
      <use xlink:href="#TimesNewRomanPSMT-31" transform="translate(676.033203 0)"/>
     </g>
    </g>
    <g id="PathCollection_6">
     <g>
      <use xlink:href="#m51a9484bab" x="333.065" y="128.0525" style="fill: #0000ff; stroke: #0000ff"/>
     </g>
    </g>
    <g id="text_22">
     <!-- PoW Sim pow_c2 -->
     <g transform="translate(351.065 130.6775) scale(0.16 -0.16)">
      <use xlink:href="#TimesNewRomanPSMT-50"/>
      <use xlink:href="#TimesNewRomanPSMT-6f" transform="translate(55.615234 0)"/>
      <use xlink:href="#TimesNewRomanPSMT-57" transform="translate(105.615234 0)"/>
      <use xlink:href="#TimesNewRomanPSMT-20" transform="translate(198.25 0)"/>
      <use xlink:href="#TimesNewRomanPSMT-53" transform="translate(223.25 0)"/>
      <use xlink:href="#TimesNewRomanPSMT-69" transform="translate(278.865234 0)"/>
      <use xlink:href="#TimesNewRomanPSMT-6d" transform="translate(306.648438 0)"/>
      <use xlink:href="#TimesNewRomanPSMT-20" transform="translate(384.431641 0)"/>
      <use xlink:href="#TimesNewRomanPSMT-70" transform="translate(409.431641 0)"/>
      <use xlink:href="#TimesNewRomanPSMT-6f" transform="translate(459.431641 0)"/>
      <use xlink:href="#TimesNewRomanPSMT-77" transform="translate(509.431641 0)"/>
      <use xlink:href="#TimesNewRomanPSMT-5f" transform="translate(581.648438 0)"/>
      <use xlink:href="#TimesNewRomanPSMT-63" transform="translate(631.648438 0)"/>
      <use xlink:href="#TimesNewRomanPSMT-32" transform="translate(676.033203 0)"/>
     </g>
    </g>
    <g id="PathCollection_7">
     <g>
      <use xlink:href="#m79b5282b70" x="333.065" y="147.615" style="fill: #ffa500; stroke: #ffa500"/>
     </g>
    </g>
    <g id="text_23">
     <!-- PoW Sim pow_c3 -->
     <g transform="translate(351.065 150.24) scale(0.16 -0.16)">
      <use xlink:href="#TimesNewRomanPSMT-50"/>
      <use xlink:href="#TimesNewRomanPSMT-6f" transform="translate(55.615234 0)"/>
      <use xlink:href="#TimesNewRomanPSMT-57" transform="translate(105.615234 0)"/>
      <use xlink:href="#TimesNewRomanPSMT-20" transform="translate(198.25 0)"/>
      <use xlink:href="#TimesNewRomanPSMT-53" transform="translate(223.25 0)"/>
      <use xlink:href="#TimesNewRomanPSMT-69" transform="translate(278.865234 0)"/>
      <use xlink:href="#TimesNewRomanPSMT-6d" transform="translate(306.648438 0)"/>
      <use xlink:href="#TimesNewRomanPSMT-20" transform="translate(384.431641 0)"/>
      <use xlink:href="#TimesNewRomanPSMT-70" transform="translate(409.431641 0)"/>
      <use xlink:href="#TimesNewRomanPSMT-6f" transform="translate(459.431641 0)"/>
      <use xlink:href="#TimesNewRomanPSMT-77" transform="translate(509.431641 0)"/>
      <use xlink:href="#TimesNewRomanPSMT-5f" transform="translate(581.648438 0)"/>
      <use xlink:href="#TimesNewRomanPSMT-63" transform="translate(631.648438 0)"/>
      <use xlink:href="#TimesNewRomanPSMT-33" transform="translate(676.033203 0)"/>
     </g>
    </g>
    <g id="PathCollection_8">
     <g>
      <use xlink:href="#m2b52ebec09" x="333.065" y="167.1775" style="fill: #ff0000; stroke: #ff0000; stroke-width: 1.5"/>
     </g>
    </g>
    <g id="text_24">
     <!-- VDF Sim -->
     <g transform="translate(351.065 169.8025) scale(0.16 -0.16)">
      <use xlink:href="#TimesNewRomanPSMT-56"/>
      <use xlink:href="#TimesNewRomanPSMT-44" transform="translate(72.216797 0)"/>
      <use xlink:href="#TimesNewRomanPSMT-46" transform="translate(144.433594 0)"/>
      <use xlink:href="#TimesNewRomanPSMT-20" transform="translate(200.048828 0)"/>
      <use xlink:href="#TimesNewRomanPSMT-53" transform="translate(225.048828 0)"/>
      <use xlink:href="#TimesNewRomanPSMT-69" transform="translate(280.664062 0)"/>
      <use xlink:href="#TimesNewRomanPSMT-6d" transform="translate(308.447266 0)"/>
     </g>
    </g>
   </g>
  </g>
 </g>
 <defs>
  <clipPath id="pafddd45278">
   <rect x="60.7325" y="12.755" width="429.1" height="311.2"/>
  </clipPath>
 </defs>
</svg>
